<svg clip-rule="evenodd" fill-rule="evenodd" height="512" image-rendering="optimizeQuality" shape-rendering="geometricPrecision" text-rendering="geometricPrecision" viewBox="0 0 512 512" width="512" xmlns="http://www.w3.org/2000/svg" xmlns:xlink="http://www.w3.org/1999/xlink" xmlns:xodm="http://www.corel.com/coreldraw/odm/2003"><linearGradient id="id0" gradientUnits="userSpaceOnUse" x1="67.83" x2="474.19" y1="82.42" y2="389.98"><stop offset="0" stop-color="#1e1b1e"/><stop offset="1" stop-color="#474747"/></linearGradient><linearGradient id="id1" gradientUnits="userSpaceOnUse" x1="-4589.57" x2="-4183.21" y1="1994.12" y2="2301.68"><stop offset="0" stop-color="#67c4ce"/><stop offset="1" stop-color="#e62a58"/></linearGradient><g id="Layer_x0020_1"><g id="_2515487839792"><path d="m-4401.4 1911.7c141.39 0 256.01 114.61 256.01 256 0 141.38-114.62 256-256.01 256-141.38 0-256-114.62-256-256 0-141.39 114.62-256 256-256z" fill="url(#id1)"/><path d="m-4343.9 2017.71c.02 4.58 1.36 70.82 70.88 74.95 0 19.11.02 32.96.02 51.19-5.27.3-45.77-2.64-70.98-25.12l-.07 99.64c.95 69.15-49.94 111.24-116.46 96.7-114.71-34.31-76.6-204.45 38.58-186.24 0 54.93.04-.02.04 54.93-47.59-7-63.5 32.58-50.86 60.92 11.51 25.8 58.88 31.4 75.41-5 1.87-7.13 2.81-15.25 2.81-24.37v-197.86z" fill="#fff"/></g><g id="_2515487840320"><path d="m256 0c141.39 0 256 114.61 256 256s-114.61 256-256 256-256-114.61-256-256 114.61-256 256-256z" fill="url(#id0)"/><path d="m180.8 159.38c53.36 0 96.62 43.26 96.62 96.62s-43.26 96.62-96.62 96.62c-53.35 0-96.61-43.26-96.61-96.62s43.26-96.62 96.61-96.62zm229.98 15.26c9.41 0 17.03 36.43 17.03 81.36s-7.62 81.36-17.03 81.36c-9.4 0-17.03-36.43-17.03-81.36s7.63-81.36 17.03-81.36zm-75.38-7.63c27 0 48.88 39.84 48.88 88.99s-21.88 88.99-48.88 88.99-48.89-39.84-48.89-88.99 21.89-88.99 48.89-88.99z" fill="#fff"/></g></g></svg>